<svg width="59" height="17" fill="none" xmlns="http://www.w3.org/2000/svg"><g clip-path="url(#clip0)" fill-rule="evenodd" clip-rule="evenodd"><path d="M15.899 0v.007c-.008 0-2.305-.007-2.918 2.227-.561 2.05-2.144 7.706-2.188 7.862h-.437s-1.62-5.783-2.188-7.869C7.555-.007 5.251 0 5.251 0H0v17h5.25V6.904h.438L8.752 17h3.646l3.063-10.09h.438V17h5.25V0H15.9zm18.77 0s-1.54.141-2.261 1.782l-3.72 8.314h-.437V0H23v17h4.96s1.61-.149 2.333-1.782l3.646-8.314h.438V17h5.25V0H34.67zM42 8v9.28h5.25v-5.42h5.69c2.479 0 4.58-1.61 5.36-3.86H42z" fill="#4DB45E"/><path d="M53.676 0H42c.583 3.237 2.968 5.835 6.053 6.681.7.193 1.437.297 2.195.297h9c.08-.386.117-.78.117-1.188 0-3.2-2.546-5.79-5.689-5.79z" fill="url(#paint0_linear)"/></g><defs><linearGradient id="paint0_linear" x1="42.001" y1="-5.348" x2="59.364" y2="-5.348" gradientUnits="userSpaceOnUse"><stop offset=".3" stop-color="#00B4E6"/><stop offset="1" stop-color="#088CCB"/></linearGradient><clipPath id="clip0"><path fill="#fff" d="M0 0h59v17H0z"/></clipPath></defs></svg>