<svg width="36" height="22" fill="none" xmlns="http://www.w3.org/2000/svg"><g clip-path="url(#clip0)"><path d="M34.918 18v-.424h-.11l-.128.291-.127-.29h-.11V18h.078v-.32l.119.276h.08l.12-.276V18h.078zm-.7 0v-.352h.142v-.071H34v.071h.141V18h.078z" fill="#F79410"/><path d="M22.53 19.181H13V2h9.53v17.181z" fill="#FF5F00"/><path d="M13.462 11.073a10.92 10.92 0 014.16-8.59A10.823 10.823 0 0010.891.146C4.876.146 0 5.038 0 11.073 0 17.108 4.876 22 10.89 22c2.542 0 4.88-.873 6.732-2.336-2.533-2-4.16-5.106-4.16-8.59z" fill="#EB001B"/><path d="M35.623 11.073C35.623 17.108 30.747 22 24.732 22c-2.541 0-4.879-.873-6.732-2.336a10.92 10.92 0 004.16-8.59A10.92 10.92 0 0018 2.482 10.826 10.826 0 0124.732.146c6.015 0 10.89 4.892 10.89 10.927z" fill="#F79E1B"/></g><defs><clipPath id="clip0"><path fill="#fff" d="M0 0h35.75v22H0z"/></clipPath></defs></svg>