<svg width="58" height="18" fill="none" xmlns="http://www.w3.org/2000/svg"><path d="M24.698 17.424H20L22.939 0h4.698l-2.939 17.424zM42.094.742C41.167.389 39.697 0 37.88 0c-4.64 0-7.907 2.373-7.927 5.765-.039 2.502 2.339 3.892 4.117 4.727 1.818.852 2.436 1.409 2.436 2.17-.019 1.166-1.469 1.704-2.822 1.704-1.875 0-2.88-.277-4.408-.926l-.619-.279L28 17.073c1.102.481 3.132.908 5.24.927 4.93 0 8.14-2.336 8.177-5.95.02-1.984-1.236-3.504-3.943-4.746-1.644-.797-2.65-1.335-2.65-2.15.02-.742.851-1.502 2.706-1.502a8.275 8.275 0 013.5.667l.425.185.639-3.762zm6.176 10.51c.386-1.001 1.875-4.876 1.875-4.876-.02.038.386-1.02.618-1.668l.328 1.502s.89 4.17 1.083 5.042H48.27zM54.068 0h-3.635c-1.12 0-1.972.315-2.455 1.446L41 17.424h4.93l.986-2.614h6.032c.135.612.56 2.614.56 2.614h4.351L54.07 0zM16.6 0l-4.601 11.882-.503-2.41C10.646 6.692 7.977 3.67 5 2.168l4.215 15.238h4.968L21.568 0H16.6z" fill="#00579F"/><path d="M7.637 0H.077L0 .352c5.897 1.446 9.802 4.931 11.406 9.12L9.763 1.466C9.493.352 8.661.037 7.637 0z" fill="#FAA61A"/></svg>