<svg width="23" height="23" fill="none" xmlns="http://www.w3.org/2000/svg"><g clip-path="url(#clip0)"><path d="M19.37 5.942c.04-.316.06-.638.06-.965A4.977 4.977 0 0014.453 0H6.136c-.523 0-.97.378-1.056.894L2.015 19.108c-.11.654.394 1.25 1.057 1.25h3.041a1.08 1.08 0 001.065-.894l.015-.084-.424 2.519A.944.944 0 007.7 23h2.661a.944.944 0 00.931-.788l.756-4.493a1.608 1.608 0 011.587-1.341h.699a6.875 6.875 0 006.875-6.876 4.36 4.36 0 00-1.838-3.56z" fill="#002987"/><path d="M19.615 6a7.836 7.836 0 01-7.775 6.869H9.519c-.524 0-.976.349-1.118.842l-1.388 8.246a.944.944 0 00.932 1.1h2.66a.944.944 0 00.932-.787l.756-4.493c.13-.775.8-1.342 1.586-1.342h.7a6.875 6.875 0 006.875-6.875A4.36 4.36 0 0019.615 6z" fill="#0085CC"/><path d="M9.118 12.677h2.321c4 0 7.3-2.998 7.775-6.87A4.346 4.346 0 0016.686 5h-6.058c-.69 0-1.278.498-1.393 1.178L8 13.518a1.164 1.164 0 011.118-.841z" fill="#00186A"/></g><defs><clipPath id="clip0"><path fill="#fff" d="M0 0h23v23H0z"/></clipPath></defs></svg>