<svg width="34" height="34" fill="none" xmlns="http://www.w3.org/2000/svg"><path d="M7.265 17.072c-2.131 0-3.842-.558-5.134-1.674-1.26-1.116-1.953-2.63-2.083-4.543A37.877 37.877 0 010 8.703c0-.956.016-1.721.048-2.295.13-1.977.808-3.539 2.035-4.686C3.31.574 5.037 0 7.265 0s3.955.574 5.182 1.722c1.26 1.147 1.954 2.71 2.083 4.686.065 1.148.097 1.913.097 2.295 0 .35-.033 1.068-.097 2.152-.13 1.913-.84 3.427-2.131 4.543-1.26 1.116-2.97 1.674-5.134 1.674zM3.342 33.713c-.323 0-.581-.08-.775-.239a.967.967 0 01-.29-.717c0-.192.064-.367.193-.526L26.348 1.148c.258-.32.5-.542.726-.67.226-.16.549-.239.969-.239h2.567c.323 0 .565.096.726.287.194.16.29.383.29.67a.817.817 0 01-.193.526L7.556 32.804c-.259.32-.5.558-.727.718-.226.127-.533.191-.92.191H3.342zm3.923-20.228c.936 0 1.614-.27 2.034-.813.452-.542.727-1.227.824-2.056.064-1.084.096-1.753.096-2.008 0-.351-.032-1.005-.096-1.961-.065-.829-.323-1.514-.775-2.056-.452-.574-1.147-.861-2.083-.861-.904 0-1.582.287-2.034.86-.452.543-.71 1.228-.775 2.057a30.765 30.765 0 00-.049 1.96c0 .798.017 1.467.049 2.009.064.797.307 1.482.726 2.056.452.542 1.147.813 2.083.813zM26.638 34c-2.13 0-3.842-.574-5.134-1.721-1.259-1.18-1.953-2.742-2.082-4.687a37.857 37.857 0 01-.049-2.152c0-.924.016-1.674.049-2.247.129-1.977.807-3.539 2.034-4.687 1.227-1.147 2.954-1.721 5.182-1.721 2.26 0 4.004.574 5.23 1.721 1.228 1.148 1.906 2.71 2.035 4.687.065 1.147.097 1.896.097 2.247 0 .35-.032 1.068-.097 2.152-.129 1.945-.84 3.507-2.13 4.687C30.512 33.425 28.801 34 26.637 34zm0-3.73c.969 0 1.663-.27 2.083-.813.452-.574.71-1.26.775-2.056.064-1.084.097-1.77.097-2.056 0-.32-.033-.957-.097-1.913-.065-.83-.323-1.514-.775-2.056-.452-.574-1.146-.861-2.083-.861-.904 0-1.582.287-2.034.86-.452.543-.71 1.228-.775 2.057a29.768 29.768 0 00-.048 1.913c0 .829.016 1.514.048 2.056.065.797.307 1.482.727 2.056.452.542 1.146.813 2.082.813z" fill="#2D9CEE"/></svg>